<?xml version="1.0" encoding="iso-8859-1"?>
<!-- Generator: Adobe Illustrator 16.0.0, SVG Export Plug-In . SVG Version: 6.00 Build 0)  -->
<!DOCTYPE svg PUBLIC "-//W3C//DTD SVG 1.1//EN" "http://www.w3.org/Graphics/SVG/1.1/DTD/svg11.dtd">
<svg xmlns="http://www.w3.org/2000/svg" xmlns:xlink="http://www.w3.org/1999/xlink" version="1.1" id="Capa_1" x="0px" y="0px" width="512px" height="512px" viewBox="0 0 59.549 59.549" style="enable-background:new 0 0 59.549 59.549;" xml:space="preserve">
<g>
	<g>
		<polygon points="36.584,11.22 33.199,4.623 25.695,4.623 29.514,11.22   " fill="#FFFFFF"/>
		<polygon points="55.113,11.22 59.549,11.22 59.549,4.623 51.295,4.623   " fill="#FFFFFF"/>
		<polygon points="49.383,11.22 45.999,4.623 38.495,4.623 42.314,11.22   " fill="#FFFFFF"/>
		<polygon points="26.128,19.163 33.199,19.163 37.019,12.566 29.514,12.566   " fill="#FFFFFF"/>
		<polygon points="38.928,19.163 45.999,19.163 49.819,12.566 42.314,12.566   " fill="#FFFFFF"/>
		<polygon points="51.727,19.163 59.549,19.163 59.549,12.566 55.113,12.566   " fill="#FFFFFF"/>
		<path d="M3.299,19.163H20.4l3.82-6.598H6.305C6.49,12.153,6.598,11.7,6.598,11.22h17.188L20.4,4.622H3.299v3.299    C1.477,7.921,0,9.398,0,11.22c0,1.822,1.477,3.299,3.299,3.299V19.163z M1.562,11.22c0-0.958,0.778-1.737,1.737-1.737    c0.958,0,1.736,0.778,1.736,1.737c0,0.958-0.778,1.736-1.736,1.736C2.341,12.957,1.562,12.179,1.562,11.22z" fill="#FFFFFF"/>
		<path d="M3.299,54.927h56.25V21.941H3.299V54.927z M6.731,31.837h14.667v-7.292c0-0.575,0.466-1.042,1.042-1.042    c0.575,0,1.042,0.466,1.042,1.042v7.292h15.885v-7.292c0-0.575,0.467-1.042,1.042-1.042c0.574,0,1.041,0.466,1.041,1.042v7.292    h14.667c0.575,0,1.042,0.467,1.042,1.041c0,0.575-0.467,1.042-1.042,1.042H6.731c-0.575,0-1.042-0.467-1.042-1.042    C5.689,32.302,6.155,31.837,6.731,31.837z M6.731,36.394h49.385c0.575,0,1.042,0.467,1.042,1.042s-0.467,1.042-1.042,1.042H6.731    c-0.575,0-1.042-0.467-1.042-1.042C5.689,36.858,6.155,36.394,6.731,36.394z M6.731,43.034c-0.575,0-1.042-0.467-1.042-1.041    c0-0.575,0.467-1.042,1.042-1.042h49.385c0.575,0,1.042,0.467,1.042,1.042c0,0.574-0.467,1.041-1.042,1.041H44.662v2.475h11.455    c0.575,0,1.042,0.467,1.042,1.041c0,0.575-0.467,1.042-1.042,1.042H6.731c-0.575,0-1.042-0.467-1.042-1.042    c0-0.574,0.467-1.041,1.042-1.041h35.847v-2.475H6.731z" fill="#FFFFFF"/>
	</g>
</g>
<g>
</g>
<g>
</g>
<g>
</g>
<g>
</g>
<g>
</g>
<g>
</g>
<g>
</g>
<g>
</g>
<g>
</g>
<g>
</g>
<g>
</g>
<g>
</g>
<g>
</g>
<g>
</g>
<g>
</g>
</svg>
