<?xml version="1.0" encoding="iso-8859-1"?>
<!-- Generator: Adobe Illustrator 18.1.1, SVG Export Plug-In . SVG Version: 6.00 Build 0)  -->
<svg version="1.1" id="Capa_1" xmlns="http://www.w3.org/2000/svg" xmlns:xlink="http://www.w3.org/1999/xlink" x="0px" y="0px"
	 viewBox="0 0 21.686 21.686" style="enable-background:new 0 0 21.686 21.686;" xml:space="preserve">
<g>
	<path style="fill:#030104;" d="M16.321,4.656c0-0.455-0.168-0.795-0.453-1.109c-0.314-0.311-0.654-0.452-1.109-0.452
		c-0.422,0-0.795,0.141-1.077,0.452c-0.312,0.314-0.455,0.655-0.455,1.109c0,0.198,0.028,0.34,0.056,0.511l-1.671,1.477V0h-1.477
		v3.521L8.431,2.073C8.459,1.93,8.459,1.819,8.459,1.676c0-0.425-0.142-0.795-0.456-1.079C7.722,0.285,7.354,0.115,6.927,0.115
		c-0.427,0-0.794,0.17-1.108,0.482C5.506,0.881,5.365,1.251,5.365,1.676s0.141,0.822,0.454,1.106
		c0.313,0.283,0.682,0.454,1.108,0.454c0.281,0,0.541-0.084,0.765-0.225l2.443,2.129v4.144L8.431,7.836
		c0.028-0.114,0.028-0.228,0.028-0.341c0-0.425-0.142-0.795-0.456-1.079C7.722,6.104,7.354,5.962,6.927,5.962
		c-0.427,0-0.794,0.142-1.108,0.455C5.506,6.7,5.365,7.07,5.365,7.495c0,0.341,0.112,0.681,0.341,0.938
		c0.028,0.084,0.086,0.141,0.141,0.198C6.16,8.943,6.501,9.085,6.928,9.085c0.281,0,0.567-0.113,0.823-0.257l2.384,2.046v4.455
		l-1.73-1.504c0.056-0.143,0.056-0.284,0.056-0.427c0-0.424-0.142-0.792-0.456-1.106c-0.281-0.284-0.649-0.454-1.076-0.454
		s-0.795,0.17-1.108,0.454c-0.315,0.313-0.456,0.682-0.456,1.106c0,0.427,0.141,0.795,0.454,1.08c0.06,0.057,0.06,0.086,0.114,0.113
		l0.086,0.085l0.426,0.201c0.142,0.055,0.283,0.083,0.482,0.083c0.112,0,0.226,0,0.368-0.057l0.341-0.143l2.498,2.158v4.768h1.478
		v-1.815l2.298-1.986c0.228,0.198,0.509,0.283,0.849,0.283c0.455,0,0.795-0.143,1.109-0.481c0.285-0.284,0.453-0.654,0.453-1.08
		V16.55c0-0.03,0-0.056,0-0.085c0-0.427-0.168-0.767-0.453-1.079c-0.314-0.285-0.654-0.425-1.05-0.425
		c-0.427,0-0.796,0.14-1.078,0.425c-0.114,0.143-0.198,0.228-0.284,0.368c-0.173,0.257-0.229,0.54-0.229,0.853
		c0,0.085,0,0.199,0.028,0.285l-1.644,1.417v-4.456l2.352-2.015c0.229,0.17,0.514,0.255,0.854,0.255c0.396,0,0.735-0.141,1.05-0.425
		c0.285-0.312,0.453-0.682,0.453-1.079c0-0.028,0-0.057,0-0.057s0-0.027,0-0.057c0-0.426-0.168-0.795-0.453-1.079
		c-0.314-0.312-0.654-0.453-1.109-0.453c-0.422,0-0.795,0.142-1.077,0.453c-0.312,0.284-0.454,0.652-0.454,1.079
		c0,0.114,0,0.254,0.028,0.37l-1.644,1.42V8.234l2.497-2.186c0.114,0.084,0.254,0.114,0.368,0.114
		c0.085,0.028,0.226,0.055,0.341,0.055c0.396,0,0.735-0.141,1.05-0.455c0.285-0.282,0.453-0.623,0.453-1.048L16.321,4.656
		L16.321,4.656z"/>
</g>
<g>
</g>
<g>
</g>
<g>
</g>
<g>
</g>
<g>
</g>
<g>
</g>
<g>
</g>
<g>
</g>
<g>
</g>
<g>
</g>
<g>
</g>
<g>
</g>
<g>
</g>
<g>
</g>
<g>
</g>
</svg>
